<svg width="25" height="25" viewBox="0 0 25 25" fill="none" xmlns="http://www.w3.org/2000/svg">
<path d="M0.784542 5.46546L5.46546 0.784542C5.96779 0.282212 6.64909 3.71471e-06 7.35949 0H22.3214C23.8008 0 25 1.19922 25 2.67857V22.3214C25 23.8008 23.8008 25 22.3214 25H2.67857C1.19922 25 2.38419e-07 23.8008 2.38419e-07 22.3214V7.35949C3.95313e-06 6.64909 0.282212 5.96778 0.784542 5.46546V5.46546ZM9.82143 2.67857V7.14286H16.9643V2.67857H9.82143ZM3.01339 22.3214H21.9866C22.0754 22.3214 22.1606 22.2862 22.2234 22.2234C22.2862 22.1606 22.3214 22.0754 22.3214 21.9866V3.01339C22.3214 2.92459 22.2862 2.83943 22.2234 2.77664C22.1606 2.71385 22.0754 2.67857 21.9866 2.67857H19.6429V8.48214C19.6429 9.22182 19.0432 9.82143 18.3036 9.82143H8.48214C7.74247 9.82143 7.14286 9.22182 7.14286 8.48214V2.8952L2.77662 7.26144C2.74553 7.29253 2.72087 7.32945 2.70404 7.37008C2.68722 7.4107 2.67857 7.45424 2.67857 7.49821V21.9866C2.67857 22.0754 2.71385 22.1606 2.77664 22.2234C2.83943 22.2862 2.92459 22.3214 3.01339 22.3214V22.3214ZM12.5 11.1607C15.2078 11.1607 17.4107 13.3637 17.4107 16.0714C17.4107 18.7792 15.2078 20.9821 12.5 20.9821C9.79224 20.9821 7.58929 18.7792 7.58929 16.0714C7.58929 13.3637 9.79224 11.1607 12.5 11.1607ZM12.5 18.3036C13.7308 18.3036 14.7321 17.3022 14.7321 16.0714C14.7321 14.8406 13.7308 13.8393 12.5 13.8393C11.2692 13.8393 10.2679 14.8406 10.2679 16.0714C10.2679 17.3022 11.2692 18.3036 12.5 18.3036Z" fill="white"/>
</svg>
