<svg width="23" height="21" viewBox="0 0 23 21" fill="none" xmlns="http://www.w3.org/2000/svg">
<path d="M12.3475 17.9668L5.03059 10.6499L2.94676 12.7337C2.94676 12.7337 2.94675 12.7337 2.94675 12.7337C2.70812 12.9725 2.57406 13.2962 2.57406 13.6337C2.57406 13.9712 2.70812 14.2949 2.94675 14.5337C2.94675 14.5337 2.94676 14.5337 2.94676 14.5337L6.5041 18.091L6.50412 18.091C6.74278 18.3298 7.06649 18.4639 7.40406 18.464L12.3475 17.9668ZM12.3475 17.9668L11.8972 18.3908L11.8971 18.3907L11.8939 18.3939C11.8315 18.4564 11.7931 18.4839 11.7681 18.4965C11.7487 18.5063 11.7355 18.5084 11.7148 18.5073C11.6932 18.5061 11.6731 18.5024 11.6405 18.4964C11.6244 18.4934 11.6053 18.4899 11.5815 18.4858C11.5164 18.4747 11.4352 18.464 11.33 18.464C11.3299 18.464 11.3299 18.464 11.3299 18.464H7.40409L12.3475 17.9668ZM15.7532 1.72717L15.7532 1.72715C15.1914 1.16551 14.4295 0.85 13.6351 0.85C12.8617 0.85 12.1191 1.14909 11.5619 1.68324H11.5595L11.5156 1.72717L1.72717 11.5156L1.72715 11.5156C1.16551 12.0774 0.85 12.8393 0.85 13.6337C0.85 14.4281 1.16551 15.19 1.72715 15.7518L1.72717 15.7518L5.28451 19.3092C5.84622 19.871 6.60811 20.1868 7.4026 20.1869H7.40264H11.3285H11.3286C12.1231 20.1868 12.885 19.871 13.4467 19.3092L21.2728 11.483L21.2728 11.483C21.8345 10.9212 22.15 10.1593 22.15 9.36487C22.15 8.57047 21.8345 7.80859 21.2728 7.24678L21.2728 7.24677L15.7532 1.72717ZM13.6351 2.57264C13.9727 2.57264 14.2964 2.70669 14.5351 2.94532C14.5351 2.94533 14.5351 2.94533 14.5351 2.94534L20.0547 8.4649C20.2933 8.70362 20.4274 9.02733 20.4274 9.36487C20.4274 9.70241 20.2933 10.0261 20.0547 10.2648L13.5682 16.7513L6.24874 9.43175L12.7352 2.94534C12.7352 2.94533 12.7352 2.94533 12.7352 2.94532C12.9739 2.70669 13.2976 2.57264 13.6351 2.57264Z" fill="white" stroke="white" stroke-width="0.3"/>
</svg>
