<svg width="133" height="45" viewBox="0 0 133 45" fill="none" xmlns="http://www.w3.org/2000/svg">
<path d="M115.16 24.192C115.368 24.192 115.54 24.24 115.676 24.336C115.82 24.432 115.892 24.592 115.892 24.816C115.892 24.92 115.86 25.088 115.796 25.32C115.74 25.552 115.66 25.82 115.556 26.124C115.46 26.428 115.348 26.756 115.22 27.108C115.092 27.46 114.96 27.808 114.824 28.152C114.688 28.488 114.552 28.808 114.416 29.112C114.28 29.416 114.156 29.672 114.044 29.88C113.964 29.944 113.844 29.996 113.684 30.036C113.524 30.076 113.348 30.096 113.156 30.096C112.924 30.096 112.724 30.064 112.556 30C112.396 29.944 112.28 29.848 112.208 29.712C112.136 29.576 112.048 29.388 111.944 29.148C111.84 28.908 111.728 28.636 111.608 28.332C111.488 28.028 111.364 27.708 111.236 27.372C111.108 27.028 110.984 26.688 110.864 26.352C110.752 26.016 110.644 25.692 110.54 25.38C110.444 25.068 110.364 24.788 110.3 24.54C110.38 24.444 110.492 24.364 110.636 24.3C110.788 24.228 110.944 24.192 111.104 24.192C111.312 24.192 111.48 24.24 111.608 24.336C111.744 24.432 111.848 24.604 111.92 24.852L112.52 26.832C112.568 26.992 112.62 27.164 112.676 27.348C112.74 27.524 112.8 27.7 112.856 27.876C112.912 28.044 112.964 28.208 113.012 28.368C113.068 28.52 113.112 28.648 113.144 28.752H113.192C113.424 28.048 113.652 27.324 113.876 26.58C114.1 25.828 114.296 25.088 114.464 24.36C114.56 24.304 114.668 24.264 114.788 24.24C114.916 24.208 115.04 24.192 115.16 24.192ZM116.94 24.696C116.828 24.64 116.724 24.556 116.628 24.444C116.532 24.332 116.484 24.18 116.484 23.988C116.484 23.636 116.704 23.376 117.144 23.208L118.656 22.62H118.992C119.248 22.62 119.452 22.696 119.604 22.848C119.756 22.992 119.832 23.192 119.832 23.448V30C119.76 30.016 119.66 30.036 119.532 30.06C119.412 30.084 119.28 30.096 119.136 30.096C118.848 30.096 118.636 30.044 118.5 29.94C118.372 29.836 118.308 29.652 118.308 29.388V24.156L116.94 24.696ZM121.08 29.256C121.08 28.992 121.16 28.772 121.32 28.596C121.488 28.412 121.716 28.32 122.004 28.32C122.284 28.32 122.504 28.412 122.664 28.596C122.832 28.772 122.916 28.992 122.916 29.256C122.916 29.512 122.832 29.732 122.664 29.916C122.504 30.092 122.284 30.18 122.004 30.18C121.716 30.18 121.488 30.092 121.32 29.916C121.16 29.732 121.08 29.512 121.08 29.256ZM128.084 26.352C128.084 25.472 127.94 24.824 127.652 24.408C127.372 23.984 127.012 23.772 126.572 23.772C126.132 23.772 125.772 23.984 125.492 24.408C125.212 24.832 125.072 25.48 125.072 26.352C125.072 27.208 125.2 27.856 125.456 28.296C125.72 28.728 126.092 28.944 126.572 28.944C127.052 28.944 127.424 28.728 127.688 28.296C127.952 27.856 128.084 27.208 128.084 26.352ZM126.572 30.18C126.124 30.18 125.712 30.1 125.336 29.94C124.968 29.78 124.648 29.544 124.376 29.232C124.112 28.912 123.904 28.512 123.752 28.032C123.608 27.552 123.536 26.992 123.536 26.352C123.536 25.704 123.616 25.14 123.776 24.66C123.936 24.18 124.152 23.784 124.424 23.472C124.696 23.152 125.016 22.916 125.384 22.764C125.752 22.612 126.148 22.536 126.572 22.536C126.996 22.536 127.392 22.616 127.76 22.776C128.128 22.928 128.448 23.16 128.72 23.472C129 23.784 129.22 24.18 129.38 24.66C129.54 25.14 129.62 25.704 129.62 26.352C129.62 26.992 129.544 27.552 129.392 28.032C129.248 28.504 129.04 28.9 128.768 29.22C128.496 29.54 128.172 29.78 127.796 29.94C127.428 30.1 127.02 30.18 126.572 30.18Z" fill="#E6513A"/>
<rect x="30" width="45" height="45" rx="7" fill="#E6513A"/>
<path d="M9.336 29.664C9.176 29.792 8.92 29.912 8.568 30.024C8.216 30.136 7.832 30.192 7.416 30.192C6.92 30.192 6.488 30.12 6.12 29.976C5.752 29.832 5.504 29.624 5.376 29.352C5.184 28.968 4.952 28.464 4.68 27.84C4.424 27.216 4.144 26.528 3.84 25.776C3.552 25.008 3.256 24.2 2.952 23.352C2.648 22.488 2.344 21.632 2.04 20.784C1.752 19.92 1.48 19.088 1.224 18.288C0.968 17.472 0.752 16.72 0.576 16.032C0.736 15.856 0.968 15.696 1.272 15.552C1.592 15.408 1.936 15.336 2.304 15.336C2.752 15.336 3.096 15.44 3.336 15.648C3.592 15.84 3.8 16.176 3.96 16.656C4.52 18.448 5.072 20.192 5.616 21.888C6.176 23.584 6.768 25.32 7.392 27.096H7.512C7.8 26.28 8.088 25.408 8.376 24.48C8.68 23.552 8.976 22.6 9.264 21.624C9.552 20.632 9.832 19.64 10.104 18.648C10.392 17.64 10.656 16.648 10.896 15.672C11.312 15.448 11.8 15.336 12.36 15.336C12.808 15.336 13.176 15.44 13.464 15.648C13.768 15.84 13.92 16.168 13.92 16.632C13.92 16.92 13.832 17.4 13.656 18.072C13.48 18.744 13.256 19.512 12.984 20.376C12.712 21.224 12.4 22.128 12.048 23.088C11.712 24.048 11.368 24.968 11.016 25.848C10.68 26.712 10.36 27.488 10.056 28.176C9.768 28.848 9.528 29.344 9.336 29.664ZM26.5716 24.312C26.5716 25.24 26.4276 26.08 26.1396 26.832C25.8676 27.568 25.4756 28.2 24.9636 28.728C24.4516 29.256 23.8356 29.664 23.1156 29.952C22.3956 30.224 21.5876 30.36 20.6916 30.36C19.7956 30.36 18.9876 30.224 18.2676 29.952C17.5476 29.664 16.9316 29.264 16.4196 28.752C15.9076 28.224 15.5076 27.592 15.2196 26.856C14.9476 26.104 14.8116 25.256 14.8116 24.312C14.8116 23.384 14.9476 22.552 15.2196 21.816C15.5076 21.064 15.9076 20.432 16.4196 19.92C16.9476 19.392 17.5716 18.992 18.2916 18.72C19.0116 18.432 19.8116 18.288 20.6916 18.288C21.5716 18.288 22.3716 18.432 23.0916 18.72C23.8116 18.992 24.4276 19.392 24.9396 19.92C25.4676 20.448 25.8676 21.088 26.1396 21.84C26.4276 22.576 26.5716 23.4 26.5716 24.312ZM20.6916 20.688C19.8276 20.688 19.1476 21.008 18.6516 21.648C18.1556 22.272 17.9076 23.16 17.9076 24.312C17.9076 25.48 18.1476 26.376 18.6276 27C19.1236 27.624 19.8116 27.936 20.6916 27.936C21.5716 27.936 22.2516 27.624 22.7316 27C23.2276 26.36 23.4756 25.464 23.4756 24.312C23.4756 23.16 23.2276 22.272 22.7316 21.648C22.2356 21.008 21.5556 20.688 20.6916 20.688ZM45.2318 17.304C45.2318 17.624 45.1438 17.904 44.9678 18.144C44.7918 18.368 44.5918 18.544 44.3678 18.672C43.9518 18.4 43.4878 18.152 42.9758 17.928C42.4638 17.704 41.8318 17.592 41.0798 17.592C39.7198 17.592 38.6318 18.032 37.8158 18.912C37.0158 19.792 36.6158 21.064 36.6158 22.728C36.6158 24.424 37.0318 25.696 37.8638 26.544C38.6958 27.392 39.8158 27.816 41.2238 27.816C41.9598 27.816 42.5918 27.72 43.1198 27.528C43.6638 27.32 44.1438 27.08 44.5598 26.808C44.7838 26.952 44.9678 27.152 45.1118 27.408C45.2558 27.648 45.3278 27.928 45.3278 28.248C45.3278 28.52 45.2558 28.768 45.1118 28.992C44.9678 29.216 44.7278 29.416 44.3918 29.592C44.0718 29.784 43.6158 29.96 43.0238 30.12C42.4478 30.296 41.7278 30.384 40.8638 30.384C39.8078 30.384 38.8238 30.232 37.9118 29.928C37.0158 29.608 36.2318 29.136 35.5598 28.512C34.8878 27.872 34.3598 27.072 33.9758 26.112C33.5918 25.152 33.3998 24.024 33.3998 22.728C33.3998 21.48 33.5918 20.384 33.9758 19.44C34.3598 18.48 34.8798 17.68 35.5358 17.04C36.2078 16.384 36.9838 15.888 37.8638 15.552C38.7598 15.216 39.7038 15.048 40.6958 15.048C41.3838 15.048 42.0078 15.112 42.5678 15.24C43.1278 15.352 43.6078 15.512 44.0078 15.72C44.4078 15.928 44.7118 16.168 44.9198 16.44C45.1278 16.712 45.2318 17 45.2318 17.304ZM52.3382 27.816C53.2662 27.816 53.9462 27.64 54.3782 27.288C54.8102 26.92 55.0262 26.464 55.0262 25.92C55.0262 25.424 54.8582 25.032 54.5222 24.744C54.1862 24.44 53.6742 24.184 52.9862 23.976L51.4502 23.496C50.8422 23.304 50.2902 23.088 49.7942 22.848C49.2982 22.608 48.8742 22.328 48.5222 22.008C48.1702 21.672 47.8982 21.288 47.7062 20.856C47.5142 20.408 47.4182 19.88 47.4182 19.272C47.4182 17.976 47.9062 16.952 48.8822 16.2C49.8582 15.432 51.1942 15.048 52.8902 15.048C53.5622 15.048 54.1782 15.104 54.7382 15.216C55.3142 15.312 55.8102 15.456 56.2262 15.648C56.6422 15.824 56.9622 16.048 57.1862 16.32C57.4262 16.592 57.5462 16.896 57.5462 17.232C57.5462 17.552 57.4662 17.832 57.3062 18.072C57.1622 18.296 56.9782 18.48 56.7542 18.624C56.3702 18.352 55.8582 18.12 55.2182 17.928C54.5942 17.72 53.9062 17.616 53.1542 17.616C52.3222 17.616 51.6902 17.768 51.2582 18.072C50.8262 18.36 50.6102 18.76 50.6102 19.272C50.6102 19.688 50.7542 20.008 51.0422 20.232C51.3462 20.456 51.8182 20.672 52.4582 20.88L53.8262 21.312C55.2182 21.728 56.2982 22.296 57.0662 23.016C57.8342 23.736 58.2182 24.712 58.2182 25.944C58.2182 26.6 58.0902 27.2 57.8342 27.744C57.5782 28.288 57.2022 28.76 56.7062 29.16C56.2262 29.544 55.6182 29.84 54.8822 30.048C54.1622 30.272 53.3382 30.384 52.4102 30.384C51.6742 30.384 50.9942 30.32 50.3702 30.192C49.7622 30.064 49.2342 29.896 48.7862 29.688C48.3382 29.464 47.9862 29.208 47.7302 28.92C47.4902 28.616 47.3702 28.288 47.3702 27.936C47.3702 27.568 47.4742 27.256 47.6822 27C47.9062 26.728 48.1622 26.528 48.4502 26.4C48.8502 26.752 49.3782 27.08 50.0342 27.384C50.6902 27.672 51.4582 27.816 52.3382 27.816ZM65.2288 27.816C66.1568 27.816 66.8368 27.64 67.2688 27.288C67.7008 26.92 67.9168 26.464 67.9168 25.92C67.9168 25.424 67.7488 25.032 67.4128 24.744C67.0768 24.44 66.5648 24.184 65.8768 23.976L64.3408 23.496C63.7328 23.304 63.1808 23.088 62.6848 22.848C62.1888 22.608 61.7648 22.328 61.4128 22.008C61.0608 21.672 60.7888 21.288 60.5968 20.856C60.4048 20.408 60.3088 19.88 60.3088 19.272C60.3088 17.976 60.7968 16.952 61.7728 16.2C62.7488 15.432 64.0848 15.048 65.7808 15.048C66.4528 15.048 67.0688 15.104 67.6288 15.216C68.2048 15.312 68.7008 15.456 69.1168 15.648C69.5328 15.824 69.8528 16.048 70.0768 16.32C70.3168 16.592 70.4368 16.896 70.4368 17.232C70.4368 17.552 70.3568 17.832 70.1968 18.072C70.0528 18.296 69.8688 18.48 69.6448 18.624C69.2608 18.352 68.7488 18.12 68.1088 17.928C67.4848 17.72 66.7968 17.616 66.0448 17.616C65.2128 17.616 64.5808 17.768 64.1488 18.072C63.7168 18.36 63.5008 18.76 63.5008 19.272C63.5008 19.688 63.6448 20.008 63.9328 20.232C64.2368 20.456 64.7088 20.672 65.3488 20.88L66.7168 21.312C68.1088 21.728 69.1888 22.296 69.9568 23.016C70.7248 23.736 71.1088 24.712 71.1088 25.944C71.1088 26.6 70.9808 27.2 70.7248 27.744C70.4688 28.288 70.0928 28.76 69.5968 29.16C69.1168 29.544 68.5088 29.84 67.7728 30.048C67.0528 30.272 66.2288 30.384 65.3008 30.384C64.5648 30.384 63.8848 30.32 63.2608 30.192C62.6528 30.064 62.1248 29.896 61.6768 29.688C61.2288 29.464 60.8768 29.208 60.6208 28.92C60.3808 28.616 60.2608 28.288 60.2608 27.936C60.2608 27.568 60.3648 27.256 60.5728 27C60.7968 26.728 61.0528 26.528 61.3408 26.4C61.7408 26.752 62.2688 27.08 62.9248 27.384C63.5808 27.672 64.3488 27.816 65.2288 27.816ZM80.8121 25.68C81.0361 26.496 81.4521 27.088 82.0601 27.456C82.6681 27.824 83.4201 28.008 84.3161 28.008C84.9881 28.008 85.6041 27.912 86.1641 27.72C86.7401 27.512 87.2041 27.296 87.5561 27.072C87.7801 27.2 87.9641 27.376 88.1081 27.6C88.2521 27.824 88.3241 28.064 88.3241 28.32C88.3241 28.64 88.2121 28.928 87.9881 29.184C87.7801 29.424 87.4841 29.632 87.1001 29.808C86.7321 29.984 86.2921 30.12 85.7801 30.216C85.2681 30.312 84.7161 30.36 84.1241 30.36C83.1801 30.36 82.3161 30.232 81.5321 29.976C80.7641 29.72 80.1001 29.336 79.5401 28.824C78.9961 28.296 78.5641 27.648 78.2441 26.88C77.9401 26.112 77.7881 25.216 77.7881 24.192C77.7881 23.2 77.9401 22.336 78.2441 21.6C78.5481 20.864 78.9561 20.248 79.4681 19.752C79.9961 19.256 80.6041 18.888 81.2921 18.648C81.9801 18.408 82.7081 18.288 83.4761 18.288C84.2601 18.288 84.9801 18.416 85.6361 18.672C86.2921 18.912 86.8521 19.256 87.3161 19.704C87.7801 20.136 88.1401 20.664 88.3961 21.288C88.6681 21.896 88.8041 22.56 88.8041 23.28C88.8041 23.728 88.6841 24.064 88.4441 24.288C88.2201 24.512 87.9001 24.656 87.4841 24.72L80.8121 25.68ZM83.4761 20.568C82.6921 20.568 82.0361 20.832 81.5081 21.36C80.9801 21.872 80.6841 22.608 80.6201 23.568L85.9481 22.776C85.8841 22.184 85.6521 21.672 85.2521 21.24C84.8521 20.792 84.2601 20.568 83.4761 20.568ZM94.3524 29.976C94.2244 30.008 94.0324 30.048 93.7764 30.096C93.5364 30.144 93.2724 30.168 92.9844 30.168C92.4084 30.168 91.9844 30.064 91.7124 29.856C91.4564 29.648 91.3284 29.28 91.3284 28.752V14.4C91.4564 14.352 91.6404 14.312 91.8804 14.28C92.1364 14.232 92.4084 14.208 92.6964 14.208C93.2724 14.208 93.6884 14.312 93.9444 14.52C94.2164 14.728 94.3524 15.096 94.3524 15.624V29.976ZM106.391 26.784C106.391 27.904 105.975 28.784 105.143 29.424C104.311 30.048 103.095 30.36 101.495 30.36C100.839 30.36 100.239 30.312 99.6954 30.216C99.1674 30.12 98.7034 29.984 98.3034 29.808C97.9194 29.616 97.6154 29.392 97.3914 29.136C97.1834 28.864 97.0794 28.568 97.0794 28.248C97.0794 27.944 97.1434 27.68 97.2714 27.456C97.4154 27.232 97.5994 27.048 97.8234 26.904C98.2714 27.192 98.7834 27.448 99.3594 27.672C99.9514 27.896 100.631 28.008 101.399 28.008C102.055 28.008 102.551 27.904 102.887 27.696C103.223 27.472 103.391 27.168 103.391 26.784C103.391 26.128 102.911 25.696 101.951 25.488L100.607 25.176C99.4234 24.904 98.5434 24.496 97.9674 23.952C97.4074 23.408 97.1274 22.68 97.1274 21.768C97.1274 20.728 97.5434 19.888 98.3754 19.248C99.2074 18.592 100.375 18.264 101.879 18.264C102.455 18.264 102.983 18.312 103.463 18.408C103.959 18.488 104.383 18.616 104.735 18.792C105.103 18.952 105.383 19.152 105.575 19.392C105.783 19.616 105.887 19.88 105.887 20.184C105.887 20.472 105.823 20.728 105.695 20.952C105.567 21.16 105.415 21.328 105.239 21.456C105.095 21.36 104.903 21.264 104.663 21.168C104.439 21.072 104.183 20.984 103.895 20.904C103.623 20.824 103.327 20.76 103.007 20.712C102.703 20.648 102.399 20.616 102.095 20.616C101.471 20.616 100.983 20.72 100.631 20.928C100.279 21.12 100.103 21.4 100.103 21.768C100.103 22.04 100.199 22.264 100.391 22.44C100.599 22.616 100.951 22.76 101.447 22.872L102.623 23.16C103.951 23.464 104.911 23.912 105.503 24.504C106.095 25.08 106.391 25.84 106.391 26.784Z" fill="white"/>
</svg>
