<svg width="22" height="29" viewBox="0 0 22 29" fill="none" xmlns="http://www.w3.org/2000/svg">
<path d="M1.57102 25.144H20.429C20.8271 25.1441 21.2104 25.2953 21.5014 25.5672C21.7923 25.839 21.9692 26.2111 21.9963 26.6083C22.0235 27.0056 21.8988 27.3983 21.6476 27.7072C21.3963 28.016 21.0372 28.218 20.6427 28.2723L20.429 28.2869H1.57102C1.17286 28.2868 0.789584 28.1356 0.498646 27.8637C0.207708 27.5919 0.0307958 27.2198 0.00365716 26.8226C-0.0234815 26.4253 0.101176 26.0326 0.352442 25.7237C0.603708 25.4149 0.962849 25.2129 1.35729 25.1586L1.57102 25.144H20.429H1.57102ZM10.7863 0.0146672L11 0C11.3798 1.60144e-05 11.7467 0.137543 12.0329 0.387148C12.3191 0.636753 12.5052 0.981549 12.5568 1.35777L12.5715 1.5715V17.6804L17.2965 12.9575C17.5629 12.6911 17.9162 12.5294 18.292 12.5017C18.6678 12.474 19.041 12.5822 19.3436 12.8067L19.5196 12.9575C19.786 13.224 19.9478 13.5773 19.9755 13.9531C20.0031 14.3288 19.8949 14.702 19.6705 15.0047L19.5196 15.1807L12.1105 22.5877C11.8444 22.8538 11.4917 23.0156 11.1164 23.0437C10.7411 23.0718 10.3682 22.9642 10.0655 22.7406L9.88948 22.5877L2.48039 15.1807C2.19921 14.9003 2.03462 14.5238 2.01969 14.127C2.00477 13.7302 2.14063 13.3424 2.39996 13.0417C2.65928 12.7409 3.02284 12.5495 3.41754 12.5059C3.81225 12.4623 4.20882 12.5698 4.52753 12.8067L4.70354 12.9575L9.4285 17.6846V1.5715C9.42852 1.19174 9.56605 0.824843 9.81565 0.538645C10.0653 0.252447 10.4101 0.0663136 10.7863 0.0146672L11 0L10.7863 0.0146672Z" fill="white"/>
</svg>
