<svg width="20" height="20" viewBox="0 0 20 20" fill="none" xmlns="http://www.w3.org/2000/svg">
<path d="M13 0C10.29 0 7.95 1.54 6.78 3.78C5.49615 4.44888 4.44888 5.49615 3.78 6.78C2.64119 7.37174 1.68655 8.26458 1.02005 9.36131C0.353543 10.458 0.00072118 11.7166 0 13C0 16.87 3.13 20 7 20C9.71 20 12.05 18.46 13.22 16.22C14.5038 15.5511 15.5511 14.5038 16.22 13.22C17.3588 12.6283 18.3135 11.7354 18.98 10.6387C19.6465 9.54195 19.9993 8.28337 20 7C20 3.13 16.87 0 13 0ZM7 18C6.07175 17.9993 5.16201 17.7402 4.37259 17.2519C3.58317 16.7636 2.9452 16.0652 2.53007 15.235C2.11495 14.4047 1.93904 13.4753 2.02203 12.5508C2.10502 11.6262 2.44364 10.743 3 10C3 13.87 6.13 17 10 17C9.16 17.63 8.12 18 7 18ZM10 15C9.07175 14.9993 8.16201 14.7402 7.37259 14.2519C6.58317 13.7636 5.9452 13.0652 5.53007 12.235C5.11495 11.4047 4.93904 10.4753 5.02203 9.55078C5.10502 8.62625 5.44364 7.74305 6 7C6 10.86 9.13 13.99 13 14C12.16 14.63 11.12 15 10 15ZM14.7 11.7C14.17 11.89 13.6 12 13 12C10.24 12 8 9.76 8 7C8 6.4 8.11 5.83 8.3 5.3C8.83 5.11 9.4 5 10 5C12.76 5 15 7.24 15 10C15 10.6 14.89 11.17 14.7 11.7ZM17 10C17 6.14 13.87 3.01 10 3C10.9633 2.28166 12.1531 1.93414 13.3516 2.02098C14.5501 2.10783 15.6773 2.62325 16.527 3.47296C17.3768 4.32267 17.8922 5.44987 17.979 6.6484C18.0659 7.84693 17.7183 9.03667 17 10V10Z" fill="white"/>
</svg>
