<svg width="20" height="22" viewBox="0 0 20 22" fill="none" xmlns="http://www.w3.org/2000/svg">
<path d="M10 3.8773C11.9125 6.33129 13.85 9.31288 14.6375 11.5337L17.425 14.2699C17.4625 13.9387 17.5 13.5951 17.5 13.2515C17.5 8.3681 10 0 10 0C10 0 8.525 1.65644 6.875 3.91411L8.675 5.68098C9.1 5.05522 9.55 4.45399 10 3.8773ZM1.7625 2.38037L0 4.11043L4.15 8.18405C3.1875 9.97546 2.5 11.7669 2.5 13.2515C2.5 17.3129 5.8625 20.6135 10 20.6135C11.9 20.6135 13.625 19.9141 14.9375 18.773L18.225 22L20 20.2699L1.7625 2.38037ZM10 18.1595C7.2375 18.1595 5 15.9632 5 13.2515C5 12.4049 5.4 11.2638 6.0125 10.0123L13.1625 17.0307C12.2875 17.7178 11.2 18.1595 10 18.1595V18.1595Z" fill="white"/>
</svg>
