<svg width="62" height="54" viewBox="0 0 62 54" fill="none" xmlns="http://www.w3.org/2000/svg">
<path d="M61.7007 50.6939L32.9166 1.10204C32.4876 0.365051 31.7473 0 31 0C30.2527 0 29.5054 0.365051 29.0834 1.10204L0.299281 50.6939C-0.551787 52.1679 0.513778 54 2.21591 54H59.7841C61.4862 54 62.5518 52.1679 61.7007 50.6939ZM28.7858 20.3878C28.7858 20.0847 29.0349 19.8367 29.3394 19.8367H32.6606C32.9651 19.8367 33.2142 20.0847 33.2142 20.3878V33.0612C33.2142 33.3643 32.9651 33.6122 32.6606 33.6122H29.3394C29.0349 33.6122 28.7858 33.3643 28.7858 33.0612V20.3878ZM31 44.6327C30.1309 44.615 29.3034 44.2589 28.695 43.6408C28.0866 43.0227 27.7459 42.1919 27.7459 41.3265C27.7459 40.4612 28.0866 39.6303 28.695 39.0122C29.3034 38.3941 30.1309 38.0381 31 38.0204C31.8691 38.0381 32.6966 38.3941 33.305 39.0122C33.9134 39.6303 34.2541 40.4612 34.2541 41.3265C34.2541 42.1919 33.9134 43.0227 33.305 43.6408C32.6966 44.2589 31.8691 44.615 31 44.6327V44.6327Z" fill="#E6513A"/>
</svg>
