<svg width="25" height="24" viewBox="0 0 25 24" fill="none" xmlns="http://www.w3.org/2000/svg">
<path d="M22 12C22 11.7016 21.8799 11.4155 21.6661 11.2045C21.4523 10.9935 21.1623 10.875 20.86 10.875H4.14C3.83765 10.875 3.54769 10.9935 3.3339 11.2045C3.12011 11.4155 3 11.7016 3 12C3 12.2984 3.12011 12.5845 3.3339 12.7955C3.54769 13.0065 3.83765 13.125 4.14 13.125H20.86C21.1623 13.125 21.4523 13.0065 21.6661 12.7955C21.8799 12.5845 22 12.2984 22 12ZM10.2661 19.0795L11.36 20.159V15.75C11.36 15.4516 11.4801 15.1655 11.6939 14.9545C11.9077 14.7435 12.1977 14.625 12.5 14.625C12.8023 14.625 13.0923 14.7435 13.3061 14.9545C13.5199 15.1655 13.64 15.4516 13.64 15.75V20.1591L14.7339 19.0795C14.9483 18.8714 15.2373 18.7553 15.5381 18.7565C15.8388 18.7577 16.1269 18.8761 16.3395 19.086C16.5522 19.2958 16.6722 19.5801 16.6734 19.8769C16.6747 20.1737 16.557 20.4589 16.3461 20.6705L13.3061 23.6705C13.3033 23.6733 13.3002 23.6755 13.2974 23.6783C13.2735 23.7015 13.2486 23.7237 13.2228 23.7448C13.2087 23.7563 13.1939 23.7662 13.1793 23.7769C13.164 23.7881 13.1491 23.7998 13.1333 23.8103C13.1165 23.8213 13.0994 23.8309 13.0823 23.8409C13.0673 23.8497 13.0528 23.8589 13.0374 23.8671C13.0205 23.876 13.0031 23.8836 12.9858 23.8915C12.9693 23.8992 12.9531 23.9075 12.9361 23.9143C12.9196 23.9211 12.9029 23.9265 12.8862 23.9324C12.8677 23.939 12.8495 23.9459 12.8307 23.9515C12.8144 23.9564 12.7978 23.96 12.7813 23.964C12.7617 23.969 12.7423 23.9743 12.7224 23.9783C12.7042 23.9818 12.6857 23.9839 12.6673 23.9865C12.6489 23.9893 12.6306 23.9926 12.612 23.9944C12.5804 23.9972 12.5487 23.9988 12.517 23.9991C12.5112 23.9993 12.5057 24 12.5 24C12.4943 24 12.4888 23.9993 12.4831 23.9992C12.4514 23.9987 12.4196 23.9975 12.3881 23.9945C12.3693 23.9926 12.351 23.9892 12.3326 23.9865C12.3143 23.9839 12.2958 23.9818 12.2776 23.9783C12.2577 23.9743 12.2383 23.969 12.2187 23.964C12.2022 23.96 12.1855 23.9564 12.1693 23.9515C12.1505 23.9459 12.1323 23.939 12.1138 23.9324C12.0971 23.9265 12.0804 23.9211 12.0639 23.9143C12.0469 23.9074 12.0307 23.8993 12.0143 23.8916C11.997 23.8836 11.9796 23.876 11.9626 23.8671C11.9472 23.8589 11.9326 23.8496 11.9177 23.8408C11.9006 23.8309 11.8834 23.8213 11.8668 23.8103C11.8509 23.7998 11.8359 23.788 11.8206 23.7768C11.806 23.7662 11.7913 23.7562 11.7772 23.7449C11.7513 23.7238 11.7265 23.7014 11.7026 23.6783C11.6997 23.6755 11.6967 23.6733 11.6939 23.6705L8.65392 20.6705C8.44301 20.4589 8.32535 20.1737 8.32657 19.8769C8.3278 19.5801 8.44781 19.2958 8.66046 19.086C8.87312 18.8761 9.16119 18.7577 9.46192 18.7565C9.76266 18.7553 10.0517 18.8714 10.2661 19.0795V19.0795ZM14.7339 4.92047L13.64 3.84103V8.25C13.64 8.54837 13.5199 8.83452 13.3061 9.04549C13.0923 9.25647 12.8023 9.375 12.5 9.375C12.1977 9.375 11.9077 9.25647 11.6939 9.04549C11.4801 8.83452 11.36 8.54837 11.36 8.25V3.84094L10.2661 4.92047C10.0517 5.12861 9.76266 5.24472 9.46192 5.24351C9.16119 5.2423 8.87312 5.12387 8.66046 4.91402C8.44781 4.70416 8.3278 4.41988 8.32657 4.1231C8.32535 3.82632 8.44301 3.54109 8.65392 3.32953L11.6939 0.329531C11.6968 0.326719 11.6999 0.324375 11.7027 0.321656C11.7266 0.2985 11.7513 0.276188 11.7772 0.255188C11.7914 0.243656 11.8063 0.233625 11.8209 0.222844C11.8361 0.211781 11.851 0.200062 11.8667 0.189656C11.8835 0.178593 11.901 0.168843 11.9183 0.158718C11.933 0.150093 11.9474 0.140907 11.9625 0.133032C11.9799 0.123844 11.9977 0.116063 12.0155 0.107719C12.0316 0.100313 12.0472 0.0925306 12.0636 0.0857806C12.0807 0.0787494 12.0982 0.0731247 12.1158 0.0670309C12.1334 0.0606559 12.151 0.0539068 12.169 0.048563C12.1862 0.0434068 12.2038 0.0396569 12.2213 0.0352507C12.2399 0.0306569 12.2583 0.0255002 12.2773 0.0218439C12.2973 0.0179064 12.3174 0.0155626 12.3375 0.0127501C12.3542 0.0104064 12.3706 0.00721852 12.3875 0.00562477C12.425 0.00196852 12.4625 0 12.5 0C12.5375 0 12.5751 0.00196852 12.6125 0.00562477C12.6294 0.00721852 12.6457 0.0103126 12.6625 0.0127501C12.6826 0.0155626 12.7028 0.0179064 12.7228 0.0218439C12.7418 0.0255939 12.76 0.0306569 12.7786 0.0352507C12.7961 0.0395632 12.8138 0.0434068 12.8311 0.048563C12.8491 0.0540005 12.8666 0.0607504 12.8843 0.0669379C12.9018 0.0731254 12.9192 0.0787494 12.9364 0.0857806C12.9529 0.0925306 12.9685 0.100406 12.9846 0.107812C13.0023 0.116062 13.0201 0.123751 13.0375 0.133032C13.0526 0.141001 13.067 0.150093 13.0816 0.158718C13.0989 0.168843 13.1164 0.1785 13.1333 0.189656C13.149 0.200062 13.1637 0.211688 13.1789 0.222751C13.1936 0.233532 13.2086 0.243656 13.2228 0.255188C13.2487 0.276188 13.2734 0.2985 13.2973 0.321656C13.3002 0.324375 13.3033 0.326719 13.3061 0.329531L16.3461 3.32953C16.557 3.54109 16.6747 3.82632 16.6734 4.1231C16.6722 4.41988 16.5522 4.70416 16.3395 4.91402C16.1269 5.12387 15.8388 5.2423 15.5381 5.24351C15.2373 5.24472 14.9483 5.12861 14.7339 4.92047V4.92047Z" fill="white"/>
<path d="M12.5 21.5C12.7984 21.5 13.0845 21.3799 13.2955 21.1661C13.5065 20.9523 13.625 20.6623 13.625 20.36L13.625 3.64C13.625 3.33765 13.5065 3.04769 13.2955 2.8339C13.0845 2.62011 12.7984 2.5 12.5 2.5C12.2016 2.5 11.9155 2.62011 11.7045 2.8339C11.4935 3.04769 11.375 3.33765 11.375 3.64L11.375 20.36C11.375 20.6623 11.4935 20.9523 11.7045 21.1661C11.9155 21.3799 12.2016 21.5 12.5 21.5ZM5.42047 9.76608L4.34103 10.86L8.75 10.86C9.04837 10.86 9.33452 10.9801 9.54549 11.1939C9.75647 11.4077 9.875 11.6977 9.875 12C9.875 12.3023 9.75647 12.5923 9.54549 12.8061C9.33452 13.0199 9.04837 13.14 8.75 13.14L4.34094 13.14L5.42047 14.2339C5.62861 14.4483 5.74472 14.7373 5.74351 15.0381C5.7423 15.3388 5.62387 15.6269 5.41402 15.8395C5.20416 16.0522 4.91988 16.1722 4.6231 16.1734C4.32632 16.1747 4.04109 16.057 3.82953 15.8461L0.829531 12.8061C0.826718 12.8033 0.824468 12.8002 0.82175 12.7974C0.798489 12.7735 0.77628 12.7486 0.755187 12.7228C0.74375 12.7087 0.733812 12.6939 0.723125 12.6793C0.711875 12.664 0.700156 12.6491 0.689656 12.6333C0.678687 12.6165 0.669125 12.5994 0.659093 12.5823C0.650281 12.5673 0.641093 12.5528 0.632937 12.5374C0.624031 12.5205 0.616437 12.5031 0.608468 12.4858C0.600781 12.4693 0.592531 12.4531 0.585687 12.4361C0.578937 12.4196 0.5735 12.4029 0.567593 12.3862C0.561031 12.3677 0.554093 12.3495 0.548468 12.3307C0.543593 12.3144 0.540031 12.2978 0.536 12.2813C0.531031 12.2617 0.525687 12.2423 0.52175 12.2224C0.518187 12.2042 0.516125 12.1857 0.5135 12.1673C0.510687 12.1489 0.507406 12.1306 0.505625 12.112C0.50276 12.0804 0.501196 12.0487 0.500937 12.017C0.500656 12.0112 0.5 12.0057 0.5 12C0.5 11.9943 0.50075 11.9888 0.500843 11.9831C0.501312 11.9514 0.502531 11.9196 0.505531 11.8881C0.507406 11.8693 0.510781 11.851 0.5135 11.8326C0.516125 11.8143 0.518187 11.7958 0.52175 11.7776C0.525687 11.7577 0.531031 11.7383 0.536 11.7187C0.540031 11.7022 0.543593 11.6855 0.548468 11.6693C0.554093 11.6505 0.561031 11.6323 0.567593 11.6138C0.5735 11.5971 0.578937 11.5804 0.585687 11.5639C0.592625 11.5469 0.600687 11.5307 0.608375 11.5143C0.616437 11.497 0.624031 11.4796 0.632937 11.4626C0.641093 11.4472 0.650375 11.4326 0.659187 11.4177C0.669125 11.4006 0.678687 11.3834 0.689656 11.3668C0.700156 11.3509 0.711968 11.3359 0.723218 11.3206C0.733812 11.306 0.743843 11.2913 0.755093 11.2772C0.776187 11.2513 0.798593 11.2265 0.821656 11.2026C0.824468 11.1997 0.826718 11.1967 0.829531 11.1939L3.82953 8.15393C4.04109 7.94301 4.32632 7.82535 4.6231 7.82657C4.91988 7.8278 5.20416 7.94781 5.41402 8.16046C5.62387 8.37312 5.7423 8.66119 5.74351 8.96192C5.74472 9.26266 5.62861 9.5517 5.42047 9.76608V9.76608ZM19.5795 14.2339L20.659 13.14L16.25 13.14C15.9516 13.14 15.6655 13.0199 15.4545 12.8061C15.2435 12.5923 15.125 12.3023 15.125 12C15.125 11.6977 15.2435 11.4077 15.4545 11.1939C15.6655 10.9801 15.9516 10.86 16.25 10.86L20.6591 10.86L19.5795 9.76608C19.3714 9.5517 19.2553 9.26266 19.2565 8.96192C19.2577 8.66119 19.3761 8.37312 19.586 8.16046C19.7958 7.94781 20.0801 7.8278 20.3769 7.82657C20.6737 7.82535 20.9589 7.94301 21.1705 8.15393L24.1705 11.1939C24.1733 11.1968 24.1756 11.1999 24.1783 11.2027C24.2015 11.2266 24.2238 11.2513 24.2448 11.2772C24.2563 11.2914 24.2664 11.3063 24.2772 11.3209C24.2882 11.3361 24.2999 11.351 24.3103 11.3667C24.3214 11.3835 24.3312 11.401 24.3413 11.4183C24.3499 11.433 24.3591 11.4474 24.367 11.4625C24.3762 11.4799 24.3839 11.4977 24.3923 11.5155C24.3997 11.5316 24.4075 11.5472 24.4142 11.5636C24.4213 11.5807 24.4269 11.5982 24.433 11.6158C24.4393 11.6334 24.4461 11.651 24.4514 11.669C24.4566 11.6862 24.4603 11.7038 24.4647 11.7213C24.4693 11.7399 24.4745 11.7583 24.4782 11.7773C24.4821 11.7973 24.4844 11.8174 24.4872 11.8375C24.4896 11.8542 24.4928 11.8706 24.4944 11.8875C24.498 11.925 24.5 11.9625 24.5 12C24.5 12.0375 24.498 12.0751 24.4944 12.1125C24.4928 12.1294 24.4897 12.1457 24.4872 12.1625C24.4844 12.1826 24.4821 12.2028 24.4782 12.2228C24.4744 12.2418 24.4693 12.26 24.4647 12.2786C24.4604 12.2961 24.4566 12.3138 24.4514 12.3311C24.446 12.3491 24.4392 12.3666 24.4331 12.3843C24.4269 12.4018 24.4213 12.4192 24.4142 12.4364C24.4075 12.4529 24.3996 12.4685 24.3922 12.4846C24.3839 12.5023 24.3762 12.5201 24.367 12.5375C24.359 12.5526 24.3499 12.567 24.3413 12.5816C24.3312 12.5989 24.3215 12.6164 24.3103 12.6333C24.2999 12.649 24.2883 12.6637 24.2772 12.6789C24.2665 12.6936 24.2563 12.7086 24.2448 12.7228C24.2238 12.7487 24.2015 12.7734 24.1783 12.7973C24.1756 12.8002 24.1733 12.8033 24.1705 12.8061L21.1705 15.8461C20.9589 16.057 20.6737 16.1747 20.3769 16.1734C20.0801 16.1722 19.7958 16.0522 19.586 15.8395C19.3761 15.6269 19.2577 15.3388 19.2565 15.0381C19.2553 14.7373 19.3714 14.4483 19.5795 14.2339V14.2339Z" fill="white"/>
</svg>
