<svg width="20" height="20" viewBox="0 0 20 20" fill="none" xmlns="http://www.w3.org/2000/svg">
<path d="M15 10.0002H16.6667V3.3335H10V5.00016H15V10.0002Z" fill="white"/>
<path d="M3.33301 16.6667H9.99967V15H4.99967V10H3.33301V16.6667Z" fill="white"/>
<path d="M18.3333 20H1.66667C1.22477 19.9996 0.801108 19.8238 0.488643 19.5114C0.176178 19.1989 0.000441231 18.7752 0 18.3333V1.66667C0.000441231 1.22477 0.176178 0.801108 0.488643 0.488643C0.801108 0.176178 1.22477 0.000441231 1.66667 0H18.3333C18.7752 0.000441231 19.1989 0.176178 19.5114 0.488643C19.8238 0.801108 19.9996 1.22477 20 1.66667V18.3333C19.9996 18.7752 19.8238 19.1989 19.5114 19.5114C19.1989 19.8238 18.7752 19.9996 18.3333 20ZM1.66667 1.66667V18.3333H18.3342L18.3333 1.66667H1.66667Z" fill="white"/>
</svg>
