<svg width="111" height="19" viewBox="0 0 111 19" fill="none" xmlns="http://www.w3.org/2000/svg">
<path d="M9.336 15.664C9.176 15.792 8.92 15.912 8.568 16.024C8.216 16.136 7.832 16.192 7.416 16.192C6.92 16.192 6.488 16.12 6.12 15.976C5.752 15.832 5.504 15.624 5.376 15.352C5.184 14.968 4.952 14.464 4.68 13.84C4.424 13.216 4.144 12.528 3.84 11.776C3.552 11.008 3.256 10.2 2.952 9.352C2.648 8.488 2.344 7.632 2.04 6.784C1.752 5.92 1.48 5.088 1.224 4.288C0.968 3.472 0.752 2.72 0.576 2.032C0.736 1.856 0.968 1.696 1.272 1.552C1.592 1.408 1.936 1.336 2.304 1.336C2.752 1.336 3.096 1.44 3.336 1.648C3.592 1.84 3.8 2.176 3.96 2.656C4.52 4.448 5.072 6.192 5.616 7.888C6.176 9.584 6.768 11.32 7.392 13.096H7.512C7.8 12.28 8.088 11.408 8.376 10.48C8.68 9.552 8.976 8.6 9.264 7.624C9.552 6.632 9.832 5.64 10.104 4.648C10.392 3.64 10.656 2.648 10.896 1.672C11.312 1.448 11.8 1.336 12.36 1.336C12.808 1.336 13.176 1.44 13.464 1.648C13.768 1.84 13.92 2.168 13.92 2.632C13.92 2.92 13.832 3.4 13.656 4.072C13.48 4.744 13.256 5.512 12.984 6.376C12.712 7.224 12.4 8.128 12.048 9.088C11.712 10.048 11.368 10.968 11.016 11.848C10.68 12.712 10.36 13.488 10.056 14.176C9.768 14.848 9.528 15.344 9.336 15.664ZM26.5716 10.312C26.5716 11.24 26.4276 12.08 26.1396 12.832C25.8676 13.568 25.4756 14.2 24.9636 14.728C24.4516 15.256 23.8356 15.664 23.1156 15.952C22.3956 16.224 21.5876 16.36 20.6916 16.36C19.7956 16.36 18.9876 16.224 18.2676 15.952C17.5476 15.664 16.9316 15.264 16.4196 14.752C15.9076 14.224 15.5076 13.592 15.2196 12.856C14.9476 12.104 14.8116 11.256 14.8116 10.312C14.8116 9.384 14.9476 8.552 15.2196 7.816C15.5076 7.064 15.9076 6.432 16.4196 5.92C16.9476 5.392 17.5716 4.992 18.2916 4.72C19.0116 4.432 19.8116 4.288 20.6916 4.288C21.5716 4.288 22.3716 4.432 23.0916 4.72C23.8116 4.992 24.4276 5.392 24.9396 5.92C25.4676 6.448 25.8676 7.088 26.1396 7.84C26.4276 8.576 26.5716 9.4 26.5716 10.312ZM20.6916 6.688C19.8276 6.688 19.1476 7.008 18.6516 7.648C18.1556 8.272 17.9076 9.16 17.9076 10.312C17.9076 11.48 18.1476 12.376 18.6276 13C19.1236 13.624 19.8116 13.936 20.6916 13.936C21.5716 13.936 22.2516 13.624 22.7316 13C23.2276 12.36 23.4756 11.464 23.4756 10.312C23.4756 9.16 23.2276 8.272 22.7316 7.648C22.2356 7.008 21.5556 6.688 20.6916 6.688ZM45.2318 3.304C45.2318 3.624 45.1438 3.904 44.9678 4.144C44.7918 4.368 44.5918 4.544 44.3678 4.672C43.9518 4.4 43.4878 4.152 42.9758 3.928C42.4638 3.704 41.8318 3.592 41.0798 3.592C39.7198 3.592 38.6318 4.032 37.8158 4.912C37.0158 5.792 36.6158 7.064 36.6158 8.728C36.6158 10.424 37.0318 11.696 37.8638 12.544C38.6958 13.392 39.8158 13.816 41.2238 13.816C41.9598 13.816 42.5918 13.72 43.1198 13.528C43.6638 13.32 44.1438 13.08 44.5598 12.808C44.7838 12.952 44.9678 13.152 45.1118 13.408C45.2558 13.648 45.3278 13.928 45.3278 14.248C45.3278 14.52 45.2558 14.768 45.1118 14.992C44.9678 15.216 44.7278 15.416 44.3918 15.592C44.0718 15.784 43.6158 15.96 43.0238 16.12C42.4478 16.296 41.7278 16.384 40.8638 16.384C39.8078 16.384 38.8238 16.232 37.9118 15.928C37.0158 15.608 36.2318 15.136 35.5598 14.512C34.8878 13.872 34.3598 13.072 33.9758 12.112C33.5918 11.152 33.3998 10.024 33.3998 8.728C33.3998 7.48 33.5918 6.384 33.9758 5.44C34.3598 4.48 34.8798 3.68 35.5358 3.04C36.2078 2.384 36.9838 1.888 37.8638 1.552C38.7598 1.216 39.7038 1.048 40.6958 1.048C41.3838 1.048 42.0078 1.112 42.5678 1.24C43.1278 1.352 43.6078 1.512 44.0078 1.72C44.4078 1.928 44.7118 2.168 44.9198 2.44C45.1278 2.712 45.2318 3 45.2318 3.304ZM52.3382 13.816C53.2662 13.816 53.9462 13.64 54.3782 13.288C54.8102 12.92 55.0262 12.464 55.0262 11.92C55.0262 11.424 54.8582 11.032 54.5222 10.744C54.1862 10.44 53.6742 10.184 52.9862 9.976L51.4502 9.496C50.8422 9.304 50.2902 9.088 49.7942 8.848C49.2982 8.608 48.8742 8.328 48.5222 8.008C48.1702 7.672 47.8982 7.288 47.7062 6.856C47.5142 6.408 47.4182 5.88 47.4182 5.272C47.4182 3.976 47.9062 2.952 48.8822 2.2C49.8582 1.432 51.1942 1.048 52.8902 1.048C53.5622 1.048 54.1782 1.104 54.7382 1.216C55.3142 1.312 55.8102 1.456 56.2262 1.648C56.6422 1.824 56.9622 2.048 57.1862 2.32C57.4262 2.592 57.5462 2.896 57.5462 3.232C57.5462 3.552 57.4662 3.832 57.3062 4.072C57.1622 4.296 56.9782 4.48 56.7542 4.624C56.3702 4.352 55.8582 4.12 55.2182 3.928C54.5942 3.72 53.9062 3.616 53.1542 3.616C52.3222 3.616 51.6902 3.768 51.2582 4.072C50.8262 4.36 50.6102 4.76 50.6102 5.272C50.6102 5.688 50.7542 6.008 51.0422 6.232C51.3462 6.456 51.8182 6.672 52.4582 6.88L53.8262 7.312C55.2182 7.728 56.2982 8.296 57.0662 9.016C57.8342 9.736 58.2182 10.712 58.2182 11.944C58.2182 12.6 58.0902 13.2 57.8342 13.744C57.5782 14.288 57.2022 14.76 56.7062 15.16C56.2262 15.544 55.6182 15.84 54.8822 16.048C54.1622 16.272 53.3382 16.384 52.4102 16.384C51.6742 16.384 50.9942 16.32 50.3702 16.192C49.7622 16.064 49.2342 15.896 48.7862 15.688C48.3382 15.464 47.9862 15.208 47.7302 14.92C47.4902 14.616 47.3702 14.288 47.3702 13.936C47.3702 13.568 47.4742 13.256 47.6822 13C47.9062 12.728 48.1622 12.528 48.4502 12.4C48.8502 12.752 49.3782 13.08 50.0342 13.384C50.6902 13.672 51.4582 13.816 52.3382 13.816ZM65.2288 13.816C66.1568 13.816 66.8368 13.64 67.2688 13.288C67.7008 12.92 67.9168 12.464 67.9168 11.92C67.9168 11.424 67.7488 11.032 67.4128 10.744C67.0768 10.44 66.5648 10.184 65.8768 9.976L64.3408 9.496C63.7328 9.304 63.1808 9.088 62.6848 8.848C62.1888 8.608 61.7648 8.328 61.4128 8.008C61.0608 7.672 60.7888 7.288 60.5968 6.856C60.4048 6.408 60.3088 5.88 60.3088 5.272C60.3088 3.976 60.7968 2.952 61.7728 2.2C62.7488 1.432 64.0848 1.048 65.7808 1.048C66.4528 1.048 67.0688 1.104 67.6288 1.216C68.2048 1.312 68.7008 1.456 69.1168 1.648C69.5328 1.824 69.8528 2.048 70.0768 2.32C70.3168 2.592 70.4368 2.896 70.4368 3.232C70.4368 3.552 70.3568 3.832 70.1968 4.072C70.0528 4.296 69.8688 4.48 69.6448 4.624C69.2608 4.352 68.7488 4.12 68.1088 3.928C67.4848 3.72 66.7968 3.616 66.0448 3.616C65.2128 3.616 64.5808 3.768 64.1488 4.072C63.7168 4.36 63.5008 4.76 63.5008 5.272C63.5008 5.688 63.6448 6.008 63.9328 6.232C64.2368 6.456 64.7088 6.672 65.3488 6.88L66.7168 7.312C68.1088 7.728 69.1888 8.296 69.9568 9.016C70.7248 9.736 71.1088 10.712 71.1088 11.944C71.1088 12.6 70.9808 13.2 70.7248 13.744C70.4688 14.288 70.0928 14.76 69.5968 15.16C69.1168 15.544 68.5088 15.84 67.7728 16.048C67.0528 16.272 66.2288 16.384 65.3008 16.384C64.5648 16.384 63.8848 16.32 63.2608 16.192C62.6528 16.064 62.1248 15.896 61.6768 15.688C61.2288 15.464 60.8768 15.208 60.6208 14.92C60.3808 14.616 60.2608 14.288 60.2608 13.936C60.2608 13.568 60.3648 13.256 60.5728 13C60.7968 12.728 61.0528 12.528 61.3408 12.4C61.7408 12.752 62.2688 13.08 62.9248 13.384C63.5808 13.672 64.3488 13.816 65.2288 13.816ZM80.8121 11.68C81.0361 12.496 81.4521 13.088 82.0601 13.456C82.6681 13.824 83.4201 14.008 84.3161 14.008C84.9881 14.008 85.6041 13.912 86.1641 13.72C86.7401 13.512 87.2041 13.296 87.5561 13.072C87.7801 13.2 87.9641 13.376 88.1081 13.6C88.2521 13.824 88.3241 14.064 88.3241 14.32C88.3241 14.64 88.2121 14.928 87.9881 15.184C87.7801 15.424 87.4841 15.632 87.1001 15.808C86.7321 15.984 86.2921 16.12 85.7801 16.216C85.2681 16.312 84.7161 16.36 84.1241 16.36C83.1801 16.36 82.3161 16.232 81.5321 15.976C80.7641 15.72 80.1001 15.336 79.5401 14.824C78.9961 14.296 78.5641 13.648 78.2441 12.88C77.9401 12.112 77.7881 11.216 77.7881 10.192C77.7881 9.2 77.9401 8.336 78.2441 7.6C78.5481 6.864 78.9561 6.248 79.4681 5.752C79.9961 5.256 80.6041 4.888 81.2921 4.648C81.9801 4.408 82.7081 4.288 83.4761 4.288C84.2601 4.288 84.9801 4.416 85.6361 4.672C86.2921 4.912 86.8521 5.256 87.3161 5.704C87.7801 6.136 88.1401 6.664 88.3961 7.288C88.6681 7.896 88.8041 8.56 88.8041 9.28C88.8041 9.728 88.6841 10.064 88.4441 10.288C88.2201 10.512 87.9001 10.656 87.4841 10.72L80.8121 11.68ZM83.4761 6.568C82.6921 6.568 82.0361 6.832 81.5081 7.36C80.9801 7.872 80.6841 8.608 80.6201 9.568L85.9481 8.776C85.8841 8.184 85.6521 7.672 85.2521 7.24C84.8521 6.792 84.2601 6.568 83.4761 6.568ZM94.3524 15.976C94.2244 16.008 94.0324 16.048 93.7764 16.096C93.5364 16.144 93.2724 16.168 92.9844 16.168C92.4084 16.168 91.9844 16.064 91.7124 15.856C91.4564 15.648 91.3284 15.28 91.3284 14.752V0.399999C91.4564 0.351999 91.6404 0.311999 91.8804 0.279999C92.1364 0.231999 92.4084 0.207999 92.6964 0.207999C93.2724 0.207999 93.6884 0.311999 93.9444 0.519999C94.2164 0.727999 94.3524 1.096 94.3524 1.624V15.976ZM106.391 12.784C106.391 13.904 105.975 14.784 105.143 15.424C104.311 16.048 103.095 16.36 101.495 16.36C100.839 16.36 100.239 16.312 99.6954 16.216C99.1674 16.12 98.7034 15.984 98.3034 15.808C97.9194 15.616 97.6154 15.392 97.3914 15.136C97.1834 14.864 97.0794 14.568 97.0794 14.248C97.0794 13.944 97.1434 13.68 97.2714 13.456C97.4154 13.232 97.5994 13.048 97.8234 12.904C98.2714 13.192 98.7834 13.448 99.3594 13.672C99.9514 13.896 100.631 14.008 101.399 14.008C102.055 14.008 102.551 13.904 102.887 13.696C103.223 13.472 103.391 13.168 103.391 12.784C103.391 12.128 102.911 11.696 101.951 11.488L100.607 11.176C99.4234 10.904 98.5434 10.496 97.9674 9.952C97.4074 9.408 97.1274 8.68 97.1274 7.768C97.1274 6.728 97.5434 5.888 98.3754 5.248C99.2074 4.592 100.375 4.264 101.879 4.264C102.455 4.264 102.983 4.312 103.463 4.408C103.959 4.488 104.383 4.616 104.735 4.792C105.103 4.952 105.383 5.152 105.575 5.392C105.783 5.616 105.887 5.88 105.887 6.184C105.887 6.472 105.823 6.728 105.695 6.952C105.567 7.16 105.415 7.328 105.239 7.456C105.095 7.36 104.903 7.264 104.663 7.168C104.439 7.072 104.183 6.984 103.895 6.904C103.623 6.824 103.327 6.76 103.007 6.712C102.703 6.648 102.399 6.616 102.095 6.616C101.471 6.616 100.983 6.72 100.631 6.928C100.279 7.12 100.103 7.4 100.103 7.768C100.103 8.04 100.199 8.264 100.391 8.44C100.599 8.616 100.951 8.76 101.447 8.872L102.623 9.16C103.951 9.464 104.911 9.912 105.503 10.504C106.095 11.08 106.391 11.84 106.391 12.784Z" fill="white"/>
</svg>
