<svg width="27" height="24" viewBox="0 0 27 24" fill="none" xmlns="http://www.w3.org/2000/svg">
<path d="M13.5182 8.80489L18.0345 4.28718V22.213C18.0345 22.4876 18.1436 22.7511 18.3378 22.9453C18.532 23.1395 18.7955 23.2486 19.0701 23.2486C19.3448 23.2486 19.6082 23.1395 19.8024 22.9453C19.9966 22.7511 20.1057 22.4876 20.1057 22.213V4.28718L24.622 8.80489L24.622 8.80492C24.8164 8.99932 25.0801 9.10854 25.355 9.10854C25.63 9.10854 25.8936 8.99932 26.088 8.80492C26.2824 8.61052 26.3916 8.34685 26.3916 8.07193C26.3916 7.79701 26.2824 7.53334 26.088 7.33894L19.8033 1.05425C19.8033 1.05419 19.8032 1.05409 19.8031 1.05403C19.7069 0.957674 19.5928 0.881256 19.467 0.829082C19.3412 0.776874 19.2063 0.75 19.0701 0.75C18.9339 0.75 18.799 0.776874 18.6732 0.829082C18.5475 0.88125 18.4333 0.957689 18.3371 1.05403C18.337 1.0541 18.337 1.05418 18.3369 1.05425L12.0522 7.33894C11.8578 7.53334 11.7486 7.79701 11.7486 8.07193C11.7486 8.34686 11.8578 8.61052 12.0522 8.80492C12.2466 8.99932 12.5103 9.10854 12.7852 9.10854C13.0601 9.10854 13.3238 8.99932 13.5182 8.80492L13.5182 8.80489ZM7.0359 1.78702V19.7128L2.51963 15.1951L2.5196 15.1951C2.3252 15.0007 2.06153 14.8915 1.78661 14.8915C1.51168 14.8915 1.24802 15.0007 1.05361 15.1951C0.859214 15.3895 0.75 15.6531 0.75 15.9281C0.75 16.203 0.859214 16.4667 1.05361 16.6611L7.3383 22.9458C7.4345 23.0422 7.54879 23.1187 7.6746 23.1709C7.80042 23.2231 7.9353 23.25 8.07152 23.25C8.20774 23.25 8.34262 23.2231 8.46844 23.1709C8.59425 23.1187 8.70853 23.0422 8.80473 22.9458L15.0894 16.6611C15.2838 16.4667 15.393 16.203 15.393 15.9281C15.393 15.6531 15.2838 15.3895 15.0894 15.1951C14.895 15.0007 14.6314 14.8915 14.3564 14.8915C14.0815 14.8915 13.8178 15.0007 13.6234 15.1951L13.6234 15.1951L9.10713 19.7128V1.78702C9.10713 1.51236 8.99802 1.24894 8.80381 1.05473C8.60959 0.860513 8.34618 0.751404 8.07152 0.751404C7.79686 0.751404 7.53344 0.860513 7.33923 1.05473C7.14501 1.24894 7.0359 1.51236 7.0359 1.78702Z" fill="white" stroke="white" stroke-width="0.5"/>
</svg>
