<svg width="8" height="12" viewBox="0 0 8 12" fill="none" xmlns="http://www.w3.org/2000/svg">
<path d="M4.00041 0C2.95745 0.00132305 1.95759 0.416222 1.22011 1.1537C0.482628 1.89118 0.0677293 2.89104 0.0664062 3.934H2.06641C2.06641 2.867 2.93441 2 4.00041 2C5.06641 2 5.93441 2.867 5.93441 3.934C5.93441 4.532 5.45341 4.966 4.71841 5.56C4.47829 5.7481 4.24768 5.94801 4.02741 6.159C3.02941 7.156 3.00041 8.215 3.00041 8.333V9H5.00041L4.99941 8.367C5.00041 8.351 5.03241 7.981 5.44041 7.574C5.59041 7.424 5.77941 7.274 5.97541 7.116C6.75441 6.485 7.93341 5.532 7.93341 3.934C7.93261 2.89106 7.51802 1.89104 6.78064 1.15347C6.04326 0.415905 5.04335 0.00105933 4.00041 0ZM3.00041 10H5.00041V12H3.00041V10Z" fill="white"/>
</svg>
