<svg width="19" height="24" viewBox="0 0 19 24" fill="none" xmlns="http://www.w3.org/2000/svg">
<path d="M19 12C19 11.7016 18.8799 11.4155 18.6661 11.2045C18.4523 10.9935 18.1623 10.875 17.86 10.875H1.14C0.837653 10.875 0.54769 10.9935 0.333898 11.2045C0.120107 11.4155 0 11.7016 0 12C0 12.2984 0.120107 12.5845 0.333898 12.7955C0.54769 13.0065 0.837653 13.125 1.14 13.125H17.86C18.1623 13.125 18.4523 13.0065 18.6661 12.7955C18.8799 12.5845 19 12.2984 19 12ZM7.26607 19.0795L8.36 20.159V15.75C8.36 15.4516 8.48011 15.1655 8.6939 14.9545C8.90769 14.7435 9.19765 14.625 9.5 14.625C9.80235 14.625 10.0923 14.7435 10.3061 14.9545C10.5199 15.1655 10.64 15.4516 10.64 15.75V20.1591L11.7339 19.0795C11.9483 18.8714 12.2373 18.7553 12.5381 18.7565C12.8388 18.7577 13.1269 18.8761 13.3395 19.086C13.5522 19.2958 13.6722 19.5801 13.6734 19.8769C13.6747 20.1737 13.557 20.4589 13.3461 20.6705L10.3061 23.6705C10.3033 23.6733 10.3002 23.6755 10.2974 23.6783C10.2735 23.7015 10.2486 23.7237 10.2228 23.7448C10.2087 23.7563 10.1939 23.7662 10.1793 23.7769C10.164 23.7881 10.1491 23.7998 10.1333 23.8103C10.1165 23.8213 10.0994 23.8309 10.0823 23.8409C10.0673 23.8497 10.0528 23.8589 10.0374 23.8671C10.0205 23.876 10.0031 23.8836 9.98583 23.8915C9.9693 23.8992 9.95306 23.9075 9.93615 23.9143C9.91962 23.9211 9.9029 23.9265 9.88618 23.9324C9.86775 23.939 9.84951 23.9459 9.8307 23.9515C9.81436 23.9564 9.79782 23.96 9.78129 23.964C9.76172 23.969 9.74235 23.9743 9.7224 23.9783C9.70416 23.9818 9.68573 23.9839 9.6673 23.9865C9.64887 23.9893 9.63062 23.9926 9.612 23.9944C9.58042 23.9972 9.54872 23.9988 9.517 23.9991C9.51121 23.9993 9.5057 24 9.5 24C9.4943 24 9.48879 23.9993 9.48309 23.9992C9.45136 23.9987 9.41963 23.9975 9.38809 23.9945C9.36928 23.9926 9.35104 23.9892 9.33261 23.9865C9.31427 23.9839 9.29584 23.9818 9.2776 23.9783C9.25765 23.9743 9.23828 23.969 9.21871 23.964C9.20218 23.96 9.18555 23.9564 9.1693 23.9515C9.15049 23.9459 9.13225 23.939 9.11382 23.9324C9.0971 23.9265 9.08038 23.9211 9.06385 23.9143C9.04694 23.9074 9.0307 23.8993 9.01426 23.8916C8.99697 23.8836 8.97959 23.876 8.96259 23.8671C8.9472 23.8589 8.93257 23.8496 8.91765 23.8408C8.90065 23.8309 8.88345 23.8213 8.86682 23.8103C8.85086 23.7998 8.83585 23.788 8.82056 23.7768C8.80602 23.7662 8.7913 23.7562 8.77724 23.7449C8.7513 23.7238 8.72651 23.7014 8.70257 23.6783C8.69972 23.6755 8.69668 23.6733 8.69392 23.6705L5.65392 20.6705C5.44301 20.4589 5.32535 20.1737 5.32657 19.8769C5.3278 19.5801 5.44781 19.2958 5.66046 19.086C5.87312 18.8761 6.16119 18.7577 6.46192 18.7565C6.76266 18.7553 7.0517 18.8714 7.26607 19.0795V19.0795ZM11.7339 4.92047L10.64 3.84103V8.25C10.64 8.54837 10.5199 8.83452 10.3061 9.04549C10.0923 9.25647 9.80235 9.375 9.5 9.375C9.19765 9.375 8.90769 9.25647 8.6939 9.04549C8.48011 8.83452 8.36 8.54837 8.36 8.25V3.84094L7.26607 4.92047C7.0517 5.12861 6.76266 5.24472 6.46192 5.24351C6.16119 5.2423 5.87312 5.12387 5.66046 4.91402C5.44781 4.70416 5.3278 4.41988 5.32657 4.1231C5.32535 3.82632 5.44301 3.54109 5.65392 3.32953L8.69392 0.329531C8.69677 0.326719 8.69991 0.324375 8.70267 0.321656C8.72661 0.2985 8.7513 0.276188 8.77724 0.255188C8.79139 0.243656 8.80631 0.233625 8.82094 0.222844C8.83614 0.211781 8.85096 0.200062 8.86673 0.189656C8.88354 0.178593 8.90102 0.168843 8.91831 0.158718C8.93304 0.150093 8.94739 0.140907 8.96249 0.133032C8.97988 0.123844 8.99774 0.116063 9.0155 0.107719C9.03156 0.100313 9.04723 0.0925306 9.06357 0.0857806C9.08067 0.0787494 9.09825 0.0731247 9.11582 0.0670309C9.1334 0.0606559 9.15097 0.0539068 9.16902 0.048563C9.18621 0.0434068 9.20379 0.0396569 9.22127 0.0352507C9.23989 0.0306569 9.25832 0.0255002 9.27732 0.0218439C9.29727 0.0179064 9.31741 0.0155626 9.33746 0.0127501C9.35418 0.0104064 9.37061 0.00721852 9.38752 0.00562477C9.42495 0.00196852 9.46247 0 9.5 0C9.53752 0 9.57505 0.00196852 9.61248 0.00562477C9.62939 0.00721852 9.64573 0.0103126 9.66245 0.0127501C9.68259 0.0155626 9.70282 0.0179064 9.72277 0.0218439C9.74177 0.0255939 9.76001 0.0306569 9.77863 0.0352507C9.79611 0.0395632 9.81378 0.0434068 9.83107 0.048563C9.84912 0.0540005 9.8666 0.0607504 9.88427 0.0669379C9.90175 0.0731254 9.91923 0.0787494 9.93643 0.0857806C9.95286 0.0925306 9.96854 0.100406 9.98459 0.107812C10.0023 0.116062 10.0201 0.123751 10.0375 0.133032C10.0526 0.141001 10.067 0.150093 10.0816 0.158718C10.0989 0.168843 10.1164 0.1785 10.1333 0.189656C10.149 0.200062 10.1637 0.211688 10.1789 0.222751C10.1936 0.233532 10.2086 0.243656 10.2228 0.255188C10.2487 0.276188 10.2734 0.2985 10.2973 0.321656C10.3002 0.324375 10.3033 0.326719 10.3061 0.329531L13.3461 3.32953C13.557 3.54109 13.6747 3.82632 13.6734 4.1231C13.6722 4.41988 13.5522 4.70416 13.3395 4.91402C13.1269 5.12387 12.8388 5.2423 12.5381 5.24351C12.2373 5.24472 11.9483 5.12861 11.7339 4.92047V4.92047Z" fill="white"/>
</svg>
