<svg width="24" height="19" viewBox="0 0 24 19" fill="none" xmlns="http://www.w3.org/2000/svg">
<path d="M12 -7.27161e-07C11.7016 -7.14119e-07 11.4155 0.120107 11.2045 0.333898C10.9935 0.54769 10.875 0.837653 10.875 1.14L10.875 17.86C10.875 18.1623 10.9935 18.4523 11.2045 18.6661C11.4155 18.8799 11.7016 19 12 19C12.2984 19 12.5845 18.8799 12.7955 18.6661C13.0065 18.4523 13.125 18.1623 13.125 17.86L13.125 1.14C13.125 0.837652 13.0065 0.54769 12.7955 0.333898C12.5845 0.120107 12.2984 -7.40203e-07 12 -7.27161e-07ZM19.0795 11.7339L20.159 10.64L15.75 10.64C15.4516 10.64 15.1655 10.5199 14.9545 10.3061C14.7435 10.0923 14.625 9.80235 14.625 9.5C14.625 9.19765 14.7435 8.90769 14.9545 8.6939C15.1655 8.48011 15.4516 8.36 15.75 8.36L20.1591 8.36L19.0795 7.26607C18.8714 7.0517 18.7553 6.76266 18.7565 6.46192C18.7577 6.16119 18.8761 5.87312 19.086 5.66046C19.2958 5.44781 19.5801 5.3278 19.8769 5.32657C20.1737 5.32535 20.4589 5.44301 20.6705 5.65392L23.6705 8.69392C23.6733 8.69668 23.6755 8.69981 23.6782 8.70257C23.7015 8.72646 23.7237 8.75137 23.7448 8.77724C23.7562 8.7913 23.7662 8.80612 23.7769 8.82065C23.7881 8.83595 23.7998 8.85086 23.8103 8.86673C23.8213 8.88345 23.8309 8.90064 23.8409 8.91774C23.8497 8.93266 23.8589 8.94719 23.8671 8.96258C23.876 8.97949 23.8836 8.99688 23.8915 9.01417C23.8992 9.0307 23.9075 9.04694 23.9143 9.06385C23.9211 9.08038 23.9265 9.0971 23.9324 9.11382C23.939 9.13225 23.9459 9.15049 23.9515 9.1693C23.9564 9.18564 23.96 9.20217 23.964 9.2187C23.969 9.23827 23.9743 9.25765 23.9782 9.2776C23.9818 9.29584 23.9839 9.31427 23.9865 9.3327C23.9893 9.35113 23.9926 9.36937 23.9944 9.38799C23.9972 9.41958 23.9988 9.45128 23.9991 9.48299C23.9993 9.48879 24 9.4943 24 9.5C24 9.5057 23.9992 9.51121 23.9992 9.51691C23.9987 9.54864 23.9975 9.58037 23.9945 9.61191C23.9926 9.63072 23.9892 9.64896 23.9865 9.66739C23.9839 9.68572 23.9818 9.70415 23.9782 9.72239C23.9743 9.74234 23.969 9.76172 23.964 9.78129C23.96 9.79782 23.9564 9.81445 23.9515 9.83069C23.9459 9.8495 23.939 9.86774 23.9324 9.88617C23.9265 9.90289 23.9211 9.91961 23.9143 9.93614C23.9074 9.95305 23.8993 9.9693 23.8916 9.98573C23.8836 10.003 23.876 10.0204 23.8671 10.0374C23.8589 10.0528 23.8496 10.0674 23.8408 10.0823C23.8309 10.0994 23.8213 10.1165 23.8103 10.1332C23.7998 10.1491 23.788 10.1641 23.7768 10.1794C23.7662 10.194 23.7562 10.2087 23.7449 10.2228C23.7238 10.2487 23.7014 10.2735 23.6783 10.2974C23.6755 10.3003 23.6733 10.3033 23.6705 10.3061L20.6705 13.3461C20.4589 13.557 20.1737 13.6747 19.8769 13.6734C19.5801 13.6722 19.2958 13.5522 19.086 13.3395C18.8761 13.1269 18.7577 12.8388 18.7565 12.5381C18.7553 12.2373 18.8714 11.9483 19.0795 11.7339V11.7339ZM4.92047 7.26608L3.84103 8.36L8.25 8.36C8.54837 8.36 8.83452 8.48011 9.04549 8.6939C9.25647 8.90769 9.375 9.19765 9.375 9.5C9.375 9.80235 9.25647 10.0923 9.04549 10.3061C8.83452 10.5199 8.54837 10.64 8.25 10.64L3.84094 10.64L4.92047 11.7339C5.12861 11.9483 5.24472 12.2373 5.24351 12.5381C5.2423 12.8388 5.12387 13.1269 4.91402 13.3395C4.70416 13.5522 4.41988 13.6722 4.1231 13.6734C3.82632 13.6747 3.54109 13.557 3.32953 13.3461L0.329531 10.3061C0.326718 10.3032 0.324375 10.3001 0.321656 10.2973C0.2985 10.2734 0.276187 10.2487 0.255187 10.2228C0.243656 10.2086 0.233625 10.1937 0.222843 10.1791C0.211781 10.1639 0.200062 10.149 0.189655 10.1333C0.178593 10.1165 0.168843 10.099 0.158718 10.0817C0.150093 10.067 0.140906 10.0526 0.133031 10.0375C0.123844 10.0201 0.116062 10.0023 0.107719 9.9845C0.100312 9.96845 0.0925302 9.95277 0.0857802 9.93643C0.078749 9.91933 0.0731243 9.90176 0.0670305 9.88418C0.0606555 9.86661 0.0539064 9.84903 0.0485626 9.83098C0.0434064 9.81379 0.0396565 9.79621 0.0352503 9.77873C0.0306565 9.76011 0.0254998 9.74168 0.0218435 9.72268C0.017906 9.70273 0.0155622 9.68259 0.0127497 9.66255C0.010406 9.64583 0.00721811 9.62939 0.00562436 9.61248C0.00196811 9.57505 -4.13618e-07 9.53753 -4.15258e-07 9.5C-4.16898e-07 9.46248 0.0019681 9.42495 0.00562435 9.38752C0.0072181 9.37061 0.0103122 9.35427 0.0127497 9.33755C0.0155622 9.31741 0.017906 9.29718 0.0218435 9.27723C0.0255935 9.25823 0.0306565 9.23999 0.0352502 9.22137C0.0395627 9.20389 0.0434063 9.18622 0.0485626 9.16893C0.0540001 9.15088 0.06075 9.1334 0.0669375 9.11573C0.073125 9.09825 0.0787489 9.08077 0.0857802 9.06357C0.0925302 9.04714 0.100405 9.03146 0.107811 9.01541C0.116061 8.99774 0.12375 8.97987 0.133031 8.96249C0.141 8.94738 0.150093 8.93304 0.158718 8.91841C0.168843 8.90112 0.178499 8.88364 0.189655 8.86673C0.200062 8.85096 0.211688 8.83633 0.22275 8.82113C0.233531 8.80641 0.243656 8.7914 0.255187 8.77724C0.276187 8.75131 0.2985 8.7266 0.321656 8.70266C0.324375 8.69981 0.326718 8.69668 0.329531 8.69393L3.32953 5.65392C3.54109 5.44301 3.82632 5.32535 4.1231 5.32657C4.41988 5.3278 4.70416 5.44781 4.91402 5.66046C5.12387 5.87312 5.2423 6.16119 5.24351 6.46192C5.24472 6.76266 5.12861 7.0517 4.92047 7.26608V7.26608Z" fill="white"/>
</svg>
