<svg width="18" height="18" viewBox="0 0 18 18" fill="none" xmlns="http://www.w3.org/2000/svg">
<path d="M10.9997 1.25208C10.9997 0.173081 9.72566 -0.397919 8.91966 0.318081L4.42666 4.31108C4.28952 4.43325 4.11232 4.50086 3.92866 4.50108H2.53033C1.93359 4.50108 1.3613 4.73813 0.93934 5.16009C0.517383 5.58205 0.28033 6.15434 0.28033 6.75108V11.2481C0.28033 11.8448 0.517383 12.4171 0.93934 12.8391C1.3613 13.261 1.93359 13.4981 2.53033 13.4981H3.92966C4.11332 13.4983 4.29052 13.5659 4.42766 13.6881L8.91866 17.6821C9.72466 18.3981 10.9997 17.8261 10.9997 16.7481V1.25208ZM5.42466 5.43208L9.49966 1.80908V16.1911L5.42466 12.5671C5.01285 12.2007 4.48087 11.9982 3.92966 11.9981H2.53033C2.33142 11.9981 2.14065 11.9191 2 11.7784C1.85935 11.6378 1.78033 11.447 1.78033 11.2481V6.75208C1.78033 6.55317 1.85935 6.3624 2 6.22175C2.14065 6.0811 2.33142 6.00208 2.53033 6.00208H3.92966C4.48087 6.00194 5.01285 5.79847 5.42466 5.43208Z" fill="white"/>
<path d="M14.9915 2.89898C15.0707 2.8404 15.1607 2.798 15.2562 2.7742C15.3518 2.75039 15.4511 2.74564 15.5485 2.76021C15.646 2.77479 15.7395 2.80842 15.8239 2.85916C15.9084 2.90991 15.982 2.97679 16.0405 3.05598C17.3157 4.77587 18.0027 6.86093 17.9995 9.00198C18.0023 11.1431 17.315 13.2282 16.0395 14.948C15.9187 15.1007 15.7432 15.2005 15.5501 15.2261C15.3571 15.2518 15.1616 15.2013 15.0051 15.0855C14.8486 14.9696 14.7432 14.7974 14.7114 14.6052C14.6796 14.4131 14.7237 14.2161 14.8345 14.056C15.9187 12.5943 16.5026 10.8219 16.4995 9.00198C16.5026 7.18206 15.9187 5.40967 14.8345 3.94798C14.776 3.86879 14.7336 3.77884 14.7097 3.68327C14.6859 3.5877 14.6812 3.48837 14.6958 3.39096C14.7103 3.29355 14.744 3.19997 14.7947 3.11555C14.8455 3.03114 14.9123 2.95754 14.9915 2.89898V2.89898Z" fill="white"/>
<path d="M13.1425 5.37197C13.2291 5.325 13.3241 5.29556 13.4221 5.28531C13.5201 5.27507 13.6191 5.28424 13.7136 5.31228C13.808 5.34033 13.896 5.3867 13.9725 5.44876C14.049 5.51082 14.1126 5.58735 14.1595 5.67397C14.6955 6.66397 14.9995 7.79897 14.9995 9.00197C15.0012 10.164 14.7124 11.308 14.1595 12.33C14.0648 12.505 13.9045 12.6353 13.7138 12.6921C13.523 12.7489 13.3176 12.7277 13.1425 12.633C12.9675 12.5383 12.8372 12.378 12.7804 12.1872C12.7236 11.9965 12.7448 11.791 12.8395 11.616C13.2595 10.839 13.4995 9.94997 13.4995 9.00197C13.4995 8.05397 13.2595 7.16497 12.8395 6.38797C12.7926 6.30131 12.7632 6.20625 12.753 6.10822C12.7429 6.0102 12.7521 5.91113 12.7802 5.81668C12.8084 5.72223 12.8549 5.63425 12.917 5.55777C12.9792 5.48129 13.0558 5.41782 13.1425 5.37097V5.37197Z" fill="white"/>
</svg>
